<?xml version="1.0" standalone="no"?>
<!DOCTYPE svg PUBLIC "-//W3C//DTD SVG 20010904//EN"
 "http://www.w3.org/TR/2001/REC-SVG-20010904/DTD/svg10.dtd">
<svg version="1.0" xmlns="http://www.w3.org/2000/svg"
 width="500.000000pt" height="500.000000pt" viewBox="0 0 500.000000 500.000000"
 preserveAspectRatio="xMidYMid meet">
<metadata>
Created by potrace 1.14, written by Peter Selinger 2001-2017
</metadata>
<g transform="translate(0.000000,500.000000) scale(0.100000,-0.100000)"
fill="#000000" stroke="none">
<path d="M2328 4975 c-2 -2 -39 -6 -83 -9 -44 -2 -87 -7 -95 -10 -8 -2 -34 -7
-57 -10 -22 -3 -52 -8 -65 -10 -12 -3 -34 -8 -48 -10 -56 -11 -123 -28 -135
-34 -5 -4 -16 -7 -25 -8 -33 -4 -67 -13 -102 -27 -20 -8 -39 -13 -42 -9 -3 3
-6 0 -6 -6 0 -7 -3 -11 -7 -10 -12 3 -85 -22 -110 -38 -13 -8 -23 -12 -23 -10
0 6 -214 -101 -276 -138 -58 -34 -216 -137 -231 -150 -6 -6 -26 -22 -44 -36
-18 -14 -41 -33 -51 -42 -10 -10 -21 -19 -25 -20 -20 -7 -199 -183 -274 -269
-30 -35 -64 -73 -77 -86 -12 -13 -22 -27 -22 -30 0 -3 -22 -35 -49 -72 -57
-77 -180 -281 -201 -331 -8 -19 -20 -41 -27 -48 -7 -7 -13 -21 -13 -30 0 -10
-8 -29 -17 -42 -10 -14 -17 -26 -16 -27 1 -2 -4 -18 -12 -37 -8 -20 -15 -42
-15 -49 0 -8 -3 -17 -8 -21 -4 -4 -7 -11 -8 -14 -1 -10 -14 -45 -23 -62 -4 -8
-7 -23 -5 -32 1 -10 -1 -18 -5 -18 -4 0 -8 -6 -9 -12 -1 -15 -31 -126 -39
-148 -3 -8 -7 -33 -9 -55 -3 -22 -9 -41 -14 -43 -5 -2 -7 -9 -4 -17 3 -7 1
-39 -5 -72 -34 -183 -35 -608 -2 -745 5 -20 7 -39 5 -41 -5 -4 28 -158 51
-243 9 -32 18 -67 20 -77 29 -127 177 -451 271 -591 21 -32 43 -67 49 -77 5
-11 13 -19 17 -19 5 0 8 -5 8 -10 0 -6 5 -16 10 -23 6 -7 31 -39 56 -72 68
-91 121 -150 209 -236 137 -132 175 -167 175 -161 0 4 4 2 8 -4 15 -22 193
-151 279 -201 48 -29 93 -56 98 -61 8 -7 28 -17 55 -27 50 -20 70 -31 70 -37
0 -4 8 -8 18 -8 10 0 23 -5 30 -12 7 -7 12 -8 12 -4 0 5 6 4 13 -2 13 -11 188
-81 217 -87 8 -2 35 -10 60 -18 42 -14 114 -35 150 -42 8 -2 47 -10 85 -19 39
-8 88 -17 110 -20 22 -3 56 -7 75 -10 102 -15 392 -22 480 -12 19 3 64 7 98
11 84 8 224 32 256 45 14 5 26 8 26 5 0 -2 15 1 33 6 17 6 42 12 54 15 12 2
64 18 115 35 51 17 99 31 106 32 6 0 12 4 12 9 0 4 7 8 15 8 51 0 377 171 515
270 120 86 336 267 334 279 0 3 11 15 25 26 14 10 29 25 34 31 4 7 25 31 47
54 22 23 40 45 40 49 0 4 10 17 23 29 28 26 47 49 47 57 0 3 11 17 25 31 14
14 25 29 25 34 0 5 11 21 25 36 27 29 135 206 135 222 0 5 7 15 15 22 8 7 12
16 9 21 -3 5 0 9 6 9 6 0 9 4 6 9 -4 5 -3 11 2 13 9 4 72 140 72 156 0 7 5 12
12 12 6 0 8 3 5 7 -4 3 -2 12 4 20 6 7 8 13 4 13 -4 0 -3 6 2 12 15 19 88 249
100 313 2 11 8 36 13 56 15 56 40 207 47 284 14 145 7 496 -11 580 -2 11 -7
43 -10 70 -13 96 -74 331 -107 410 -6 17 -13 35 -14 40 -13 54 -116 273 -200
424 -41 74 -173 257 -230 317 -63 68 -85 95 -85 104 0 5 -8 10 -17 10 -9 0
-14 2 -11 5 8 8 -125 134 -226 215 -49 38 -140 104 -203 146 -118 78 -375 214
-405 214 -10 0 -18 4 -18 8 0 7 -74 35 -90 34 -3 0 -9 3 -15 7 -5 5 -23 12
-40 16 -16 5 -34 10 -40 11 -5 2 -30 9 -55 16 -25 7 -47 15 -50 18 -3 3 -14 6
-25 7 -32 3 -102 18 -133 27 -9 3 -37 8 -62 11 -48 6 -87 12 -135 21 -36 6
-451 15 -457 9z"/>
</g>
</svg>
